# xmcd
#
# Track frame offsets: 
#        150
#        11722
#        25542
#        37943
#        51419
#        65171
#        79813
#        91946
#        105901
#        119061
#        131352
#        156549
#        169738
#        181583
#        194360
#        207017
#
# Disc length: 2938 seconds
#
# Revision: 0
# Processed by: cddbd v1.5.2PL0 Copyright (c) Steve Scherf et al.
# Submitted via: ExactAudioCopy v1.0b1
#
DISCID=cf0b7810
DTITLE=Various Artist - The Birth of Rhythm and Blues [CD2)
DYEAR=1900
DGENRE=R&B
TTITLE0=Louis Jordan - Jack, You're Dead
TTITLE1=Bull Moose Jackson - I Love You, Yes I Do
TTITLE2=Wynonie Harris - Good Rockin' Tonight
TTITLE3=Johnny Moore's Three Blazers - New Orleans Blues
TTITLE4=T-Bone Walker - Call It Stormy Monday
TTITLE5=Paul Williams - 35-30
TTITLE6=Paul Williams - King Size Papa
TTITLE7=Lonnie Williams - Tomorrow Night
TTITLE8=Nellie Lutcher - Fine Brown Frame
TTITLE9=Louis Jordan - Reet, Petite and Gone
TTITLE10=Sonny Thompson - Long Gone, Pts. 1 and 2
TTITLE11=Dinah Washington - Baby, Get Lost
TTITLE12=Ivory Joe Hunter - Pretty Mama Blues
TTITLE13=Amos Milburn - Chicken Shack Boogie
TTITLE14=The Ravens - Send for Me If You Need Me
TTITLE15=Ray Brown - Long About Midnight
EXTD=
EXTT0=
EXTT1=
EXTT2=
EXTT3=
EXTT4=
EXTT5=
EXTT6=
EXTT7=
EXTT8=
EXTT9=
EXTT10=
EXTT11=
EXTT12=
EXTT13=
EXTT14=
EXTT15=
PLAYORDER=
